<?xml version="1.0" encoding="UTF-8" standalone="no"?>
<svg
   xmlns:dc="http://purl.org/dc/elements/1.1/"
   xmlns:cc="http://creativecommons.org/ns#"
   xmlns:rdf="http://www.w3.org/1999/02/22-rdf-syntax-ns#"
   xmlns:svg="http://www.w3.org/2000/svg"
   xmlns="http://www.w3.org/2000/svg"
   xmlns:sodipodi="http://sodipodi.sourceforge.net/DTD/sodipodi-0.dtd"
   xmlns:inkscape="http://www.inkscape.org/namespaces/inkscape"
   class="ionicon"
   viewBox="0 0 512 512"
   version="1.1"
   id="svg8"
   sodipodi:docname="newspaper.svg"
   inkscape:version="1.0.1 (3bc2e813f5, 2020-09-07)">
  <metadata
     id="metadata14">
    <rdf:RDF>
      <cc:Work
         rdf:about="">
        <dc:format>image/svg+xml</dc:format>
        <dc:type
           rdf:resource="http://purl.org/dc/dcmitype/StillImage" />
      </cc:Work>
    </rdf:RDF>
  </metadata>
  <defs
     id="defs12" />
  <sodipodi:namedview
     pagecolor="#ffffff"
     bordercolor="#666666"
     borderopacity="1"
     objecttolerance="10"
     gridtolerance="10"
     guidetolerance="10"
     inkscape:pageopacity="0"
     inkscape:pageshadow="2"
     inkscape:window-width="3840"
     inkscape:window-height="2066"
     id="namedview10"
     showgrid="false"
     inkscape:zoom="2.0039062"
     inkscape:cx="256"
     inkscape:cy="256"
     inkscape:window-x="2149"
     inkscape:window-y="609"
     inkscape:window-maximized="1"
     inkscape:current-layer="svg8" />
  <title
     id="title2">Newspaper</title>
  <path
     d="M439.91 112h-23.82a.09.09 0 00-.09.09V416a32 32 0 0032 32 32 32 0 0032-32V152.09A40.09 40.09 0 00439.91 112z"
     id="path4"
     style="fill:#7b7883;fill-opacity:1" />
  <path
     d="M384 416V72a40 40 0 00-40-40H72a40 40 0 00-40 40v352a56 56 0 0056 56h342.85a1.14 1.14 0 001.15-1.15 1.14 1.14 0 00-.85-1.1A64.11 64.11 0 01384 416zM96 128a16 16 0 0116-16h64a16 16 0 0116 16v64a16 16 0 01-16 16h-64a16 16 0 01-16-16zm208 272H112.45c-8.61 0-16-6.62-16.43-15.23A16 16 0 01112 368h191.55c8.61 0 16 6.62 16.43 15.23A16 16 0 01304 400zm0-64H112.45c-8.61 0-16-6.62-16.43-15.23A16 16 0 01112 304h191.55c8.61 0 16 6.62 16.43 15.23A16 16 0 01304 336zm0-64H112.45c-8.61 0-16-6.62-16.43-15.23A16 16 0 01112 240h191.55c8.61 0 16 6.62 16.43 15.23A16 16 0 01304 272zm0-64h-63.55c-8.61 0-16-6.62-16.43-15.23A16 16 0 01240 176h63.55c8.61 0 16 6.62 16.43 15.23A16 16 0 01304 208zm0-64h-63.55c-8.61 0-16-6.62-16.43-15.23A16 16 0 01240 112h63.55c8.61 0 16 6.62 16.43 15.23A16 16 0 01304 144z"
     id="path6"
     style="fill:#7b7883;fill-opacity:1" />
</svg>
